<svg width="24" height="24" xmlns="http://www.w3.org/2000/svg"><path fill="none" d="M-1-1h582v402H-1z"/><ellipse ry="11.937" rx="12" cy="12" cx="12" fill="#0c0e0d"/><path fill="#296F21" d="M7.847 6.996c-.23 0-.462.053-.694.152-.233.1-.463.237-.69.414a4.885 4.885 0 00-.664.628c-.214.243-.418.51-.607.798-.19.287-.365.594-.534.904h-.001 0a9.409 9.409 0 00-.432.997c-.123.34-.222.68-.3 1.025a5.936 5.936 0 00-.137 1.004.353.353 0 00-.006.062v.065c0 .179.026.363.05.531v.002l.002.001c.046.18.12.345.212.491a1.164 1.164 0 00.368.355.967.967 0 00.531.142c.18 0 .367-.041.56-.127.19-.085.381-.197.571-.328.184-.131.367-.282.544-.452.142-.131.271-.268.4-.404l-.135.416c-.058.201-.123.395-.176.585-.058.187-.104.356-.143.505-.04.148-.066.248-.066.312v.148c0 .165.017.281.071.354a.273.273 0 00.228.104.298.298 0 00.182-.065.819.819 0 00.15-.153v-.001l.001-.001c.04-.06.079-.123.112-.19.035-.07.054-.13.074-.185h0l.046-.165.098-.339.13-.453c.052-.17.097-.34.155-.512l.154-.513a19.834 19.834 0 01.249-.79c.014-.045.027-.08.037-.106l.01-.022.027.012.012-.033c.052-.15.104-.292.156-.428.052-.137.104-.274.143-.41a2.577 2.577 0 00.151-.883.436.436 0 00-.034-.175.301.301 0 00-.085-.123.342.342 0 00-.12-.068.426.426 0 00-.13-.02.449.449 0 00-.258.086.572.572 0 00-.204.29h0L7.48 11.64a2.678 2.678 0 01-.217.351v.001a6.443 6.443 0 01-1.172 1.255 2.418 2.418 0 01-.41.276.728.728 0 01-.343.1.329.329 0 01-.214-.07.436.436 0 01-.14-.188 1.084 1.084 0 01-.07-.266 2.18 2.18 0 01-.018-.289c0-.282.045-.598.135-.954.09-.356.214-.713.37-1.082.155-.37.336-.726.538-1.076.2-.35.414-.66.634-.933a3.67 3.67 0 01.664-.65c.224-.167.425-.248.618-.248a.603.603 0 01.34.1.93.93 0 01.288.339h0c.092.177.184.314.264.414.082.103.177.156.28.156a.35.35 0 00.284-.143.58.58 0 00.116-.38 1.12 1.12 0 00-.02-.21.596.596 0 00-.096-.23c-.215-.321-.446-.552-.692-.7h-.001a1.518 1.518 0 00-.77-.218h0zm7.507.586a.55.55 0 00-.281.082h0-.002a.582.582 0 00-.217.295l-1.294 3.259-.286.715c-.105.26-.202.521-.306.787a3.282 3.282 0 00-.12.377 3.421 3.421 0 01-.176.147c-.142.11-.277.193-.404.25h-.001a.716.716 0 01-.317.089c-.057 0-.094-.014-.118-.037-.024-.022-.039-.057-.039-.113 0-.127.02-.267.058-.422.039-.15.09-.308.149-.467a5.98 5.98 0 01.187-.473l.19-.441c.058-.137.104-.262.143-.366a.788.788 0 00.061-.258.486.486 0 00-.098-.3.325.325 0 00-.267-.13.32.32 0 00-.259.123 1.037 1.037 0 00-.174.288 2.683 2.683 0 00-.137.368 2.79 2.79 0 01-.142.366 7.075 7.075 0 01-.285.566 4.548 4.548 0 01-.387.581 2.352 2.352 0 01-.462.448.863.863 0 01-.514.176c-.057 0-.095-.02-.114-.06a.323.323 0 01-.036-.154c.007-.14.031-.287.077-.44.045-.153.096-.304.154-.453.059-.143.124-.29.194-.428.072-.137.137-.267.202-.383h0l.17-.323a1.548 1.548 0 00.092-.226v-.001h0a.406.406 0 00.015-.1.287.287 0 00-.037-.147h0v-.001a.36.36 0 00-.23-.163.445.445 0 00-.403.07.675.675 0 00-.218.292 15.81 15.81 0 00-.541 1.245c-.13.346-.222.626-.287.841a3.196 3.196 0 00-.111.48h0l-.014.159v.001c0 .147.02.274.062.377v.001c.046.1.101.182.17.245a.612.612 0 00.247.13c.09.028.185.04.28.04.214 0 .41-.039.59-.105s.343-.16.49-.271a2.329 2.329 0 00.385-.376c.082-.096.144-.195.205-.292-.027.15-.053.3-.053.42 0 .226.043.39.138.491a.476.476 0 00.358.147c.143 0 .301-.04.476-.116.173-.078.349-.18.527-.306.045-.03.087-.064.13-.097l.004.025a.685.685 0 00.102.24h.001v.001a.585.585 0 00.2.165.68.68 0 00.308.062 1.37 1.37 0 00.54-.12h0c.184-.086.368-.191.552-.329a6.061 6.061 0 00.556-.477l.007-.006c-.032.072-.062.145-.095.218-.15.332-.302.666-.461 1.008-.16.342-.32.68-.469 1.019v.002l-.001.001a2.692 2.692 0 01-.071.19c-.025.064-.058.13-.079.205h0c-.025.069-.051.136-.065.21a.817.817 0 00-.027.216c0 .142.04.251.117.306a.459.459 0 00.273.079.51.51 0 00.23-.055h0a.65.65 0 00.18-.151c.052-.062.096-.132.136-.211a2.678 2.678 0 00.105-.25l.002-.003v-.003a1.48 1.48 0 01.057-.167l.111-.299.13-.35.137-.358.116-.298c.033-.085.053-.144.065-.174v-.001c.013-.026.033-.065.058-.13l.091-.214.11-.253.118-.26.098-.235.07-.155h0c.06-.117.13-.245.208-.388h0c.084-.142.174-.278.271-.42h0a9.01 9.01 0 01.317-.401c.11-.128.226-.238.343-.341a1.77 1.77 0 01.356-.236.78.78 0 01.342-.088.23.23 0 01.122.027.092.092 0 01.029.07c0 .055-.03.142-.099.242h0c-.071.11-.155.227-.258.356-.111.13-.221.266-.345.409-.123.144-.24.287-.352.43a4.233 4.233 0 00-.282.413h0a1.04 1.04 0 00-.14.364v.005a.132.132 0 01-.003.015c-.002.006-.004.01-.004.024v.039a.5.5 0 00.188.415c.125.104.302.15.52.15.24 0 .46-.046.665-.14.204-.091.414-.216.63-.38h0a8.53 8.53 0 00.679-.578c.234-.222.506-.469.811-.74a.58.58 0 00.18-.24.712.712 0 00.06-.281.435.435 0 00-.056-.222.19.19 0 00-.17-.101.253.253 0 00-.112.03 1.011 1.011 0 00-.116.068c-.072.023.011.043.02.074-.368.33-.688.608-.94.826-.26.228-.479.403-.648.54a4.036 4.036 0 01-.393.28.474.474 0 01-.198.08c-.054 0-.09-.013-.107-.029a.097.097 0 01-.03-.074.15.15 0 01.024-.051 1.062 1.062 0 01.08-.104l.273-.319c.111-.124.222-.26.345-.41.124-.151.24-.307.344-.468.11-.157.195-.32.267-.479.07-.16.107-.312.107-.456a.573.573 0 00-.072-.292.63.63 0 00-.19-.205.85.85 0 00-.257-.124h0a1.066 1.066 0 00-.715.05 2.099 2.099 0 00-.41.227 3.888 3.888 0 00-.387.308 6.774 6.774 0 00-.26.26l.025-.121c.01-.05.017-.097.023-.142h0a.715.715 0 00.009-.103.362.362 0 00-.086-.255v-.001h-.002c-.06-.062-.152-.088-.274-.088-.083 0-.164.048-.232.13a1.493 1.493 0 00-.18.286 2.894 2.894 0 00-.139.329l-.091.259h0a9.63 9.63 0 01-.103.332.226.226 0 00-.028.01.226.226 0 00-.093.061l.002-.002c-.08.078-.172.17-.273.266-.1.098-.208.195-.318.292-.111.091-.223.189-.336.279-.11.089-.219.168-.322.236a2.2 2.2 0 01-.287.165.531.531 0 01-.212.06c-.04 0-.058-.01-.068-.028h-.001a.213.213 0 01-.022-.106.94.94 0 01.044-.267c.029-.1.059-.188.089-.264l.02-.02.255-.653c.098-.25.202-.51.319-.789l.351-.859c.117-.292.234-.575.345-.845l.325-.755c.097-.23.182-.423.253-.58V8.4c.04-.08.066-.155.092-.22h0a.64.64 0 00.038-.204c0-.134-.042-.24-.123-.303a.41.41 0 00-.263-.091z" stroke="null"/></svg>