<svg width="512" height="512" xmlns="http://www.w3.org/2000/svg"><path fill="none" d="M-1-1h582v402H-1z"/><circle cy="256" cx="256" fill="#0c0e0d" r="255.5"/><path fill="#296F21" d="M234.767 256.854c0 36.349 2.597 66.892-15.338 84.967-10.088 10.169-26.005 16.16-45.588 16.16-32.122 0-49.957-15.649-61.34-37.302a823.026 823.026 0 0133.572-20.306c4.657 13.023 20.383 27.665 38.129 18.652 11.248-5.717 9.95-23.05 9.95-41.863V157.797c-.036-.586-.071-1.172.41-1.243h40.206l-.001 100.3zm101.956-23.622c-10.248-4.389-22.987-9.58-26.11-19.069-3.5-10.634 2.47-19.395 9.116-22.376 14.616-6.565 32.035 4.243 35.644 15.333 10.999-6.547 21.962-13.133 31.916-20.722-11.697-19.424-28.843-33.33-60.098-32.329-17.208.55-30.136 5.983-39.787 14.09-9.42 7.911-16.692 19.014-17.825 34.816-3.384 47.297 32.007 59.37 62.171 72.529 9.509 4.148 20.08 8.336 24.454 16.578 9.02 17.008-6.958 28.228-20.723 29.428-22.093 1.925-36.989-11-45.592-24.454-10.746 6.662-22.43 12.382-32.742 19.48 14.342 25.222 37.86 41.55 74.603 41.445 37.484-.105 65.274-18.178 67.555-52.22 3.102-46.27-31.563-59.25-62.582-72.529z" stroke="null"/></svg>