<svg width="32" height="32" xmlns="http://www.w3.org/2000/svg"><path fill="none" d="M-1-1h582v402H-1z"/><circle cy="16" cx="16" fill="#0c0e0d" r="15.937"/><path d="M26.403 18.934c-.066-.548-.348-.973-.774-1.307-.493-.385-1.07-.544-1.685-.57a3.805 3.805 0 00-1.466.227c-.135.049-.267.106-.403.161-.018-.033-.037-.064-.053-.097-.14-.285-.308-.558-.344-.884-.027-.232-.06-.465-.004-.694.053-.22.123-.438.188-.656.033-.112.01-.175-.097-.225a.435.435 0 00-.119-.04 1.828 1.828 0 00-.777.058c-.09.027-.156.077-.176.177-.011.057-.035.112-.05.168-.067.236-.114.475-.222.699-.27.561-.577 1.101-.893 1.638-.034.058-.07.115-.113.185-.11-.231-.229-.439-.265-.683-.04-.275-.072-.55-.003-.824.05-.204.118-.404.179-.605.03-.096.016-.146-.071-.196a.418.418 0 00-.143-.055 1.747 1.747 0 00-.804.066c-.082.026-.125.08-.15.163-.073.249-.136.503-.239.74a258.33 258.33 0 01-1.275 2.858c-.09.199-.194.39-.295.583-.026.05-.063.092-.094.139-.026-.03-.036-.051-.036-.072 0-.122-.014-.248.01-.366.07-.357.151-.713.237-1.068.07-.292.153-.582.232-.873.026-.097.027-.188-.044-.27a.403.403 0 00-.508-.061c-.015.011-.034.019-.064.036.005-.046.008-.075.013-.104.03-.222.036-.443-.024-.663-.077-.273-.271-.43-.554-.422a1.213 1.213 0 00-.393.075c-.514.201-.91.558-1.246.988a.385.385 0 01-.113.098c-.435.24-.872.479-1.308.718l-.485.266c-.13-.124-.249-.253-.383-.363-.41-.334-.827-.66-1.24-.99-.365-.294-.72-.6-.992-.987a1.759 1.759 0 01-.344-.962 2.26 2.26 0 01.345-1.257c.297-.495.7-.892 1.145-1.252.47-.381.977-.704 1.504-.999.737-.412 1.495-.777 2.308-1.019.834-.247 1.679-.388 2.55-.29.343.039.676.118.982.286.234.128.426.296.516.558.087.259.085.52.024.783-.124.53-.415.97-.782 1.36-.6.643-1.332 1.08-2.158 1.368a5.92 5.92 0 01-1.468.313 2.76 2.76 0 01-1.2-.145 1.562 1.562 0 01-.662-.449c-.032-.038-.073-.078-.133-.043-.06.034-.07.09-.05.147.034.094.064.192.115.276.13.211.317.365.524.496.398.253.842.338 1.302.357.7.03 1.381-.074 2.053-.261.96-.268 1.794-.74 2.463-1.486.558-.62.955-1.322 1.04-2.168.042-.414-.002-.818-.195-1.195-.21-.408-.543-.69-.942-.898-.58-.305-1.207-.424-1.853-.46h-.648a7.725 7.725 0 00-2.277.471c-.557.203-1.103.431-1.634.696-1.155.577-2.231 1.268-3.115 2.225-.44.477-.813 1-1.027 1.62-.062.18-.1.373-.146.56-.003.017.014.032-.025.047v.265c.039.068.043.135.06.203.114.441.348.82.638 1.165.413.492.913.888 1.431 1.26.45.324.906.64 1.357.96.077.055.149.118.233.186-.072.039-.133.073-.195.105a10.43 10.43 0 00-1.696 1.05c-.319.248-.627.51-.844.854-.349.552-.473 1.14-.213 1.768.077.183.193.342.357.459a.52.52 0 00.174.09c.159.037.321.062.482.091h.456a2.835 2.835 0 001.378-.504c.648-.447 1.085-1.047 1.273-1.817a3.21 3.21 0 00-.018-1.677c-.015-.052-.034-.102-.054-.152s-.043-.099-.07-.161l1.034-.595.016.013c-.019.061-.039.123-.056.185-.123.449-.205.905-.175 1.37.031.497.17.961.46 1.376.234.336.794.348 1.044.012.088-.12.174-.244.239-.378.168-.348.324-.702.485-1.054l.028-.065c-.011.167-.025.313-.031.46-.01.228.004.456.082.674.067.186.18.325.394.349.145.017.262-.05.369-.135.168-.132.304-.295.405-.48.285-.526.579-1.047.838-1.586.28-.582.525-1.18.786-1.773l.043-.105c.061.242.105.478.183.703.092.26.205.513.33.76.058.116.051.192-.03.29-.34.409-.673.822-1.006 1.236a2.732 2.732 0 00-.209.284.55.55 0 00-.072.205.261.261 0 00.208.297c.132.028.272.039.407.029a2.389 2.389 0 001.262-.475c.485-.36.64-.848.523-1.428-.032-.158-.088-.311-.142-.463-.025-.068-.026-.117.018-.18.387-.553.718-1.14 1.026-1.74a.369.369 0 01.045-.072c.1.519.25 1.018.519 1.472-.137.132-.273.252-.396.384-.27.29-.505.607-.627.992-.053.166-.094.334-.07.512.037.276.262.454.533.392.579-.134 1.08-.407 1.445-.89.246-.326.268-.69.165-1.07-.028-.104-.062-.205-.098-.324.144-.045.283-.098.427-.13.749-.172 1.489-.142 2.21.128.421.158.761.423.963.838.246.508.11.99-.369 1.311-.044.03-.095.054-.133.091a.13.13 0 00-.03.1c.003.02.052.042.08.042.157-.001.285-.083.407-.168.308-.213.51-.499.558-.875.002-.01-.014-.02.025-.031v-.25c-.039-.01-.023-.02-.024-.031h-.004zM11.755 19.95c-.05.67-.353 1.214-.85 1.654-.28.248-.6.424-.973.486a.718.718 0 01-.406-.028c-.187-.08-.229-.246-.232-.424-.006-.282.093-.537.228-.78.177-.315.436-.557.713-.782.436-.354.91-.655 1.393-.938.008-.005.018-.008.037-.015.075.276.11.55.09.828h0zm3.783-2.914c-.035.214-.08.428-.142.636a18.807 18.807 0 01-.794 2.1c-.055.128-.135.244-.206.364a.204.204 0 01-.043.05c-.086.086-.17.082-.213-.03a2.363 2.363 0 01-.11-.41c-.018-.092-.013-.19-.019-.284.006-.676.212-1.29.562-1.862.144-.235.301-.46.54-.61a.974.974 0 01.24-.106c.128-.036.207.024.186.152h0zm2.58 3.288c.31-.36.619-.72.928-1.083.039.402-.644 1.205-.927 1.083zm2.964-.728c-.066.037-.138.065-.205.1-.061.031-.082 0-.084-.054a.367.367 0 01.014-.108c.125-.442.356-.819.7-1.125.004-.005.012-.007.023-.013a.993.993 0 01-.45 1.2h.002z" fill="#296F21" stroke="null"/></svg>