<svg xmlns="http://www.w3.org/2000/svg" width="64" height="64"><path vector-effect="non-scaling-stroke" d="M48.47 16.983a1.916 1.916 0 00-2.014-.355L16.028 29.041c-.817.334-1.325 1.186-1.247 2.094.077.908.722 1.654 1.582 1.833l8.26 1.715V45.27c-.009.834.476 1.587 1.22 1.898.245.106.506.161.77.162A1.916 1.916 0 0028 46.722l4.714-4.896 6.957 6.357c.358.33.82.513 1.3.514.209 0 .416-.034.614-.101a2.01 2.01 0 001.321-1.496L49.107 19a2.097 2.097 0 00-.637-2.017zm-32.375 14.03a.664.664 0 01.415-.697l27.892-11.379-19.273 14.455-8.507-1.767a.653.653 0 01-.527-.611zm10.972 14.74a.642.642 0 01-.719.149.686.686 0 01-.407-.633v-9.632l5.781 5.282zm20.755-27.06l-6.201 28.1a.676.676 0 01-.44.5.641.641 0 01-.639-.138l-14.204-12.98 21.377-16.033c.114.158.153.36.107.551z" fill="#fff"/><path vector-effect="non-scaling-stroke" d="M31.966.606c17.31 0 31.36 14.05 31.36 31.36s-14.05 31.36-31.36 31.36S.606 49.275.606 31.965 14.656.606 31.966.606z" stroke="#fff" fill="none"/></svg>