<?xml version="1.0" encoding="utf-8"?><svg viewBox="0 0 512 512" xmlns="http://www.w3.org/2000/svg" xmlns:xlink="http://www.w3.org/1999/xlink"><style>:root>svg{display:none}:root>svg:target{display:block}</style><svg viewBox="0 0 24 24" fill="none" id="arrow-slider-left" xmlns="http://www.w3.org/2000/svg"><path d="m15 7-5 5 5 5" stroke="#0C0E0D" stroke-width="1.5" stroke-linecap="round" stroke-linejoin="round"/></svg><svg viewBox="0 0 24 24" fill="none" id="arrow-slider-right" xmlns="http://www.w3.org/2000/svg"><path d="m10 7 5 5-5 5" stroke="#0C0E0D" stroke-width="1.5" stroke-linecap="round" stroke-linejoin="round"/></svg><svg viewBox="0 0 64 64" id="bem" xmlns="http://www.w3.org/2000/svg"><path fill="none" d="M-1-1h66v66H-1z"/><circle cy="32" cx="32" fill="#0c0e0d" r="31.875"/><text stroke="null" font-family="'Trebuchet MS', Gadget, sans-serif" font-size="20" y="39.125" x="13.89" stroke-width="0" fill="#296F21" cursor="move">BEM</text></svg><svg viewBox="0 0 512 512" fill="#0C0E0D" id="css" xmlns="http://www.w3.org/2000/svg"><circle cx="256" cy="256" r="256"/><path d="M184.512 271.52h20.64v3.728c0 15.072-2.752 24.832-8.256 29.248s-17.664 6.624-36.512 6.624c-21.392 0-34.544-3.488-39.472-10.464-4.928-7.008-7.376-25.664-7.376-56.064 0-17.888 3.328-29.648 10-35.28 6.672-5.632 20.608-8.448 41.84-8.448 15.456 0 25.76 2.32 30.96 6.944 5.184 4.64 7.776 13.824 7.776 27.6l.08 2.448h-20.64v-2.768c0-7.088-1.328-11.648-4-13.632s-8.784-2.976-18.304-2.976c-12.768 0-20.416 1.568-22.992 4.672-2.576 3.12-3.856 12.384-3.856 27.792 0 20.752 1.152 33.024 3.456 36.832 2.32 3.808 9.744 5.712 22.336 5.712 10.224 0 16.848-1.04 19.888-3.168 3.04-2.112 4.56-6.784 4.56-13.968l-.128-4.832zm114-38.112h-20.096c-.096-.992-.16-1.744-.16-2.224-.464-6.096-1.808-9.92-4.032-11.488-2.224-1.552-7.472-2.336-15.712-2.336-9.744 0-16.112.896-19.088 2.688-3.008 1.792-4.48 5.6-4.48 11.36 0 6.832 1.216 10.928 3.648 12.304 2.432 1.392 10.48 2.432 24.128 3.184 16.16.896 26.592 3.2 31.344 6.912 4.72 3.696 7.088 11.408 7.088 23.088 0 14.4-2.784 23.696-8.336 27.904-5.568 4.224-17.808 6.32-36.752 6.32-17.04 0-28.352-2.064-33.936-6.192s-8.368-12.48-8.368-25.088l-.08-3.968h20l.08 2.32c0 7.568 1.328 12.192 3.968 13.888 2.656 1.68 9.872 2.528 21.68 2.528 9.184 0 15.056-.976 17.632-2.944 2.528-1.952 3.808-6.48 3.808-13.568 0-5.248-.976-8.736-2.912-10.448s-6.096-2.768-12.496-3.12l-11.36-.72c-17.136-.992-28.112-3.392-32.864-7.136-4.768-3.76-7.152-11.824-7.152-24.224 0-12.656 2.88-21.072 8.624-25.28 5.728-4.224 17.2-6.32 34.4-6.32 16.32 0 27.28 1.92 32.944 5.792 5.68 3.856 8.496 11.408 8.496 22.624v4.144h-.016zm97.344 0H375.76c-.112-.992-.16-1.744-.16-2.224-.464-6.096-1.824-9.92-4.048-11.488-2.224-1.552-7.472-2.336-15.712-2.336-9.728 0-16.112.896-19.088 2.688s-4.48 5.6-4.48 11.36c0 6.832 1.216 10.928 3.664 12.304 2.416 1.392 10.464 2.432 24.128 3.184 16.144.896 26.592 3.2 31.328 6.912s7.088 11.408 7.088 23.088c0 14.4-2.768 23.696-8.336 27.904-5.568 4.224-17.808 6.32-36.768 6.32-17.024 0-28.336-2.064-33.936-6.192-5.584-4.128-8.368-12.48-8.368-25.088l-.08-3.968h20.016l.08 2.32c0 7.568 1.312 12.192 3.968 13.888 2.64 1.68 9.856 2.528 21.664 2.528 9.2 0 15.072-.976 17.632-2.944 2.528-1.952 3.808-6.48 3.808-13.568 0-5.248-.976-8.736-2.912-10.448-1.92-1.712-6.096-2.768-12.496-3.12l-11.36-.72c-17.136-.992-28.096-3.392-32.864-7.136-4.768-3.76-7.136-11.824-7.136-24.224 0-12.656 2.864-21.072 8.608-25.28 5.728-4.224 17.216-6.32 34.4-6.32 16.32 0 27.296 1.92 32.96 5.792 5.664 3.856 8.496 11.408 8.496 22.624v4.144z" fill="#296f21"/></svg><svg fill="none" viewBox="0 0 28 28" id="github" xmlns="http://www.w3.org/2000/svg"><circle cx="14" cy="14" r="13.5" stroke="#D4D4D8"/><path fill-rule="evenodd" clip-rule="evenodd" d="M14.607 7.227a6.464 6.464 0 0 0-6.48 6.48c0 2.861 1.863 5.291 4.428 6.155.324.054.432-.135.432-.324v-1.107c-1.81.405-2.187-.864-2.187-.864-.297-.756-.73-.945-.73-.945-.593-.405.055-.405.055-.405.648.054.999.675.999.675.567 1 1.512.702 1.89.54.054-.432.216-.702.405-.864-1.431-.162-2.943-.729-2.943-3.213 0-.702.243-1.296.675-1.728-.054-.162-.297-.81.054-1.727 0 0 .54-.162 1.782.675a6.506 6.506 0 0 1 1.62-.216c.54 0 1.107.08 1.62.216 1.242-.837 1.782-.675 1.782-.675.35.89.135 1.538.054 1.727.405.46.675 1.026.675 1.728 0 2.484-1.512 3.024-2.97 3.186.243.19.432.594.432 1.188v1.782c0 .162.108.378.459.324a6.448 6.448 0 0 0 4.428-6.129 6.464 6.464 0 0 0-6.48-6.48z" fill="#fff"/></svg><svg viewBox="0 0 24 24" fill="none" id="goTop" xmlns="http://www.w3.org/2000/svg"><g stroke="#fff" stroke-width="1.5" stroke-linecap="round" stroke-linejoin="round"><path d="M12 22c5.523 0 10-4.477 10-10S17.523 2 12 2 2 6.477 2 12s4.477 10 10 10zm0-6.5v-6"/><path d="m9 11.5 3-3 3 3"/></g></svg><svg viewBox="0 0 24 24" id="gulp" xmlns="http://www.w3.org/2000/svg"><path fill="none" d="M-1-1h582v402H-1z"/><ellipse ry="11.937" rx="12" cy="12" cx="12" fill="#0c0e0d"/><path fill="#296F21" d="M7.847 6.996c-.23 0-.462.053-.694.152-.233.1-.463.237-.69.414a4.885 4.885 0 0 0-.664.628c-.214.243-.418.51-.607.798-.19.287-.365.594-.534.904h-.001a9.409 9.409 0 0 0-.432.997c-.123.34-.222.68-.3 1.025a5.936 5.936 0 0 0-.137 1.004.353.353 0 0 0-.006.062v.065c0 .179.026.363.05.531v.002l.002.001c.046.18.12.345.212.491a1.164 1.164 0 0 0 .368.355.967.967 0 0 0 .531.142c.18 0 .367-.041.56-.127.19-.085.381-.197.571-.328.184-.131.367-.282.544-.452.142-.131.271-.268.4-.404l-.135.416c-.058.201-.123.395-.176.585-.058.187-.104.356-.143.505-.04.148-.066.248-.066.312v.148c0 .165.017.281.071.354a.273.273 0 0 0 .228.104.298.298 0 0 0 .182-.065.819.819 0 0 0 .15-.153v-.001l.001-.001c.04-.06.079-.123.112-.19.035-.07.054-.13.074-.185l.046-.165.098-.339.13-.453c.052-.17.097-.34.155-.512l.154-.513a19.834 19.834 0 0 1 .249-.79c.014-.045.027-.08.037-.106l.01-.022.027.012.012-.033c.052-.15.104-.292.156-.428.052-.137.104-.274.143-.41a2.577 2.577 0 0 0 .151-.883.436.436 0 0 0-.034-.175.301.301 0 0 0-.085-.123.342.342 0 0 0-.12-.068.426.426 0 0 0-.13-.02.449.449 0 0 0-.258.086.572.572 0 0 0-.204.29L7.48 11.64a2.678 2.678 0 0 1-.217.351v.001a6.443 6.443 0 0 1-1.172 1.255 2.418 2.418 0 0 1-.41.276.728.728 0 0 1-.343.1.329.329 0 0 1-.214-.07.436.436 0 0 1-.14-.188 1.084 1.084 0 0 1-.07-.266 2.18 2.18 0 0 1-.018-.289c0-.282.045-.598.135-.954.09-.356.214-.713.37-1.082.155-.37.336-.726.538-1.076.2-.35.414-.66.634-.933a3.67 3.67 0 0 1 .664-.65c.224-.167.425-.248.618-.248a.603.603 0 0 1 .34.1.93.93 0 0 1 .288.339c.092.177.184.314.264.414.082.103.177.156.28.156a.35.35 0 0 0 .284-.143.58.58 0 0 0 .116-.38 1.12 1.12 0 0 0-.02-.21.596.596 0 0 0-.096-.23c-.215-.321-.446-.552-.692-.7h-.001a1.518 1.518 0 0 0-.77-.218zm7.507.586a.55.55 0 0 0-.281.082h-.002a.582.582 0 0 0-.217.295l-1.294 3.259-.286.715c-.105.26-.202.521-.306.787a3.282 3.282 0 0 0-.12.377 3.421 3.421 0 0 1-.176.147c-.142.11-.277.193-.404.25h-.001a.716.716 0 0 1-.317.089c-.057 0-.094-.014-.118-.037-.024-.022-.039-.057-.039-.113 0-.127.02-.267.058-.422.039-.15.09-.308.149-.467a5.98 5.98 0 0 1 .187-.473l.19-.441c.058-.137.104-.262.143-.366a.788.788 0 0 0 .061-.258.486.486 0 0 0-.098-.3.325.325 0 0 0-.267-.13.32.32 0 0 0-.259.123 1.037 1.037 0 0 0-.174.288 2.683 2.683 0 0 0-.137.368 2.79 2.79 0 0 1-.142.366 7.075 7.075 0 0 1-.285.566 4.548 4.548 0 0 1-.387.581 2.352 2.352 0 0 1-.462.448.863.863 0 0 1-.514.176c-.057 0-.095-.02-.114-.06a.323.323 0 0 1-.036-.154c.007-.14.031-.287.077-.44.045-.153.096-.304.154-.453.059-.143.124-.29.194-.428.072-.137.137-.267.202-.383l.17-.323a1.548 1.548 0 0 0 .092-.226v-.001a.406.406 0 0 0 .015-.1.287.287 0 0 0-.037-.147v-.001a.36.36 0 0 0-.23-.163.445.445 0 0 0-.403.07.675.675 0 0 0-.218.292 15.81 15.81 0 0 0-.541 1.245c-.13.346-.222.626-.287.841a3.196 3.196 0 0 0-.111.48l-.014.159v.001c0 .147.02.274.062.377v.001c.046.1.101.182.17.245a.612.612 0 0 0 .247.13c.09.028.185.04.28.04.214 0 .41-.039.59-.105s.343-.16.49-.271a2.329 2.329 0 0 0 .385-.376c.082-.096.144-.195.205-.292-.027.15-.053.3-.053.42 0 .226.043.39.138.491a.476.476 0 0 0 .358.147c.143 0 .301-.04.476-.116.173-.078.349-.18.527-.306.045-.03.087-.064.13-.097l.004.025a.685.685 0 0 0 .102.24h.001v.001a.585.585 0 0 0 .2.165.68.68 0 0 0 .308.062 1.37 1.37 0 0 0 .54-.12c.184-.086.368-.191.552-.329a6.061 6.061 0 0 0 .556-.477l.007-.006c-.032.072-.062.145-.095.218-.15.332-.302.666-.461 1.008-.16.342-.32.68-.469 1.019v.002l-.001.001a2.692 2.692 0 0 1-.071.19c-.025.064-.058.13-.079.205-.025.069-.051.136-.065.21a.817.817 0 0 0-.027.216c0 .142.04.251.117.306a.459.459 0 0 0 .273.079.51.51 0 0 0 .23-.055.65.65 0 0 0 .18-.151c.052-.062.096-.132.136-.211a2.678 2.678 0 0 0 .105-.25l.002-.003v-.003a1.48 1.48 0 0 1 .057-.167l.111-.299.13-.35.137-.358.116-.298c.033-.085.053-.144.065-.174v-.001c.013-.026.033-.065.058-.13l.091-.214.11-.253.118-.26.098-.235.07-.155c.06-.117.13-.245.208-.388.084-.142.174-.278.271-.42a9.01 9.01 0 0 1 .317-.401c.11-.128.226-.238.343-.341a1.77 1.77 0 0 1 .356-.236.78.78 0 0 1 .342-.088.23.23 0 0 1 .122.027.092.092 0 0 1 .029.07c0 .055-.03.142-.099.242-.071.11-.155.227-.258.356-.111.13-.221.266-.345.409-.123.144-.24.287-.352.43a4.233 4.233 0 0 0-.282.413 1.04 1.04 0 0 0-.14.364v.005a.132.132 0 0 1-.003.015c-.002.006-.004.01-.004.024v.039a.5.5 0 0 0 .188.415c.125.104.302.15.52.15.24 0 .46-.046.665-.14.204-.091.414-.216.63-.38a8.53 8.53 0 0 0 .679-.578c.234-.222.506-.469.811-.74a.58.58 0 0 0 .18-.24.712.712 0 0 0 .06-.281.435.435 0 0 0-.056-.222.19.19 0 0 0-.17-.101.253.253 0 0 0-.112.03 1.011 1.011 0 0 0-.116.068c-.072.023.011.043.02.074-.368.33-.688.608-.94.826-.26.228-.479.403-.648.54a4.036 4.036 0 0 1-.393.28.474.474 0 0 1-.198.08c-.054 0-.09-.013-.107-.029a.097.097 0 0 1-.03-.074.15.15 0 0 1 .024-.051 1.062 1.062 0 0 1 .08-.104l.273-.319c.111-.124.222-.26.345-.41.124-.151.24-.307.344-.468.11-.157.195-.32.267-.479.07-.16.107-.312.107-.456a.573.573 0 0 0-.072-.292.63.63 0 0 0-.19-.205.85.85 0 0 0-.257-.124 1.066 1.066 0 0 0-.715.05 2.099 2.099 0 0 0-.41.227 3.888 3.888 0 0 0-.387.308 6.774 6.774 0 0 0-.26.26l.025-.121c.01-.05.017-.097.023-.142a.715.715 0 0 0 .009-.103.362.362 0 0 0-.086-.255v-.001h-.002c-.06-.062-.152-.088-.274-.088-.083 0-.164.048-.232.13a1.493 1.493 0 0 0-.18.286 2.894 2.894 0 0 0-.139.329l-.091.259a9.63 9.63 0 0 1-.103.332.226.226 0 0 0-.028.01.226.226 0 0 0-.093.061l.002-.002c-.08.078-.172.17-.273.266-.1.098-.208.195-.318.292-.111.091-.223.189-.336.279-.11.089-.219.168-.322.236a2.2 2.2 0 0 1-.287.165.531.531 0 0 1-.212.06c-.04 0-.058-.01-.068-.028h-.001a.213.213 0 0 1-.022-.106.94.94 0 0 1 .044-.267c.029-.1.059-.188.089-.264l.02-.02.255-.653c.098-.25.202-.51.319-.789l.351-.859c.117-.292.234-.575.345-.845l.325-.755c.097-.23.182-.423.253-.58V8.4c.04-.08.066-.155.092-.22a.64.64 0 0 0 .038-.204c0-.134-.042-.24-.123-.303a.41.41 0 0 0-.263-.091z" stroke="null"/></svg><svg viewBox="0 0 512 512" fill="#0C0E0D" stroke="#0C0E0D" id="html" xmlns="http://www.w3.org/2000/svg"><circle cx="256" cy="256" r="256"/><path d="M145.84 204.144V307.84h-19.68v-44.832H77.536v44.832h-19.68V204.144h19.68v42.32h48.624v-42.32h19.68zm59.568 17.632v86.08h-19.68v-86.08h-29.936v-17.632h80.624v17.632h-31.008zm162.208-17.632V307.84h-19.664v-56.528c0-4.496.128-9.632.368-15.344l.368-7.744.384-7.664h-.592l-2.352 7.216-2.288 7.216c-2.128 6.48-3.776 11.264-4.944 14.352l-22.8 58.496h-17.92l-23.024-58.048c-1.264-3.184-2.944-7.968-5.008-14.352l-2.336-7.216-2.352-7.136h-.608l.368 7.52.384 7.616c.304 5.872.448 10.912.448 15.104v56.528h-19.68V204.16h32.064l18.544 48.016c1.264 3.344 2.944 8.128 5.008 14.352l2.288 7.216 2.336 7.136h.688l2.208-7.136 2.288-7.136c1.872-6.032 3.504-10.8 4.864-14.288l18.24-48.176h32.72zm37.904 0v86.08h48.624v17.632h-68.32V204.16h19.696v-.016z" fill="#296f21"/></svg><svg viewBox="0 0 512 512" id="js" xmlns="http://www.w3.org/2000/svg"><path fill="none" d="M-1-1h582v402H-1z"/><circle cy="256" cx="256" fill="#0c0e0d" r="255.5"/><path fill="#296F21" d="M234.767 256.854c0 36.349 2.597 66.892-15.338 84.967-10.088 10.169-26.005 16.16-45.588 16.16-32.122 0-49.957-15.649-61.34-37.302a823.026 823.026 0 0 1 33.572-20.306c4.657 13.023 20.383 27.665 38.129 18.652 11.248-5.717 9.95-23.05 9.95-41.863V157.797c-.036-.586-.071-1.172.41-1.243h40.206l-.001 100.3zm101.956-23.622c-10.248-4.389-22.987-9.58-26.11-19.069-3.5-10.634 2.47-19.395 9.116-22.376 14.616-6.565 32.035 4.243 35.644 15.333 10.999-6.547 21.962-13.133 31.916-20.722-11.697-19.424-28.843-33.33-60.098-32.329-17.208.55-30.136 5.983-39.787 14.09-9.42 7.911-16.692 19.014-17.825 34.816-3.384 47.297 32.007 59.37 62.171 72.529 9.509 4.148 20.08 8.336 24.454 16.578 9.02 17.008-6.958 28.228-20.723 29.428-22.093 1.925-36.989-11-45.592-24.454-10.746 6.662-22.43 12.382-32.742 19.48 14.342 25.222 37.86 41.55 74.603 41.445 37.484-.105 65.274-18.178 67.555-52.22 3.102-46.27-31.563-59.25-62.582-72.529z" stroke="null"/></svg><svg viewBox="0 0 64 64" id="logo" xmlns="http://www.w3.org/2000/svg"><path fill="none" d="M-1-1h66v66H-1z"/><ellipse ry="32" rx="31.938" cy="32" cx="32" fill="#0c0e0d"/><text stroke="null" font-family="'Trebuchet MS', Gadget, sans-serif" font-size="24" y="39.313" x="14.598" stroke-width="0" fill="#296F21">RAI</text></svg><svg viewBox="0 0 24 24" fill="none" id="more__arrow" xmlns="http://www.w3.org/2000/svg"><path fill="#fff" d="M0 0h24v24H0z"/><path d="M6 12h12m0 0-5-5m5 5-5 5" stroke="#0C0E0D" stroke-linecap="round" stroke-linejoin="round"/></svg><svg viewBox="0 0 32 32" id="scss" xmlns="http://www.w3.org/2000/svg"><path fill="none" d="M-1-1h582v402H-1z"/><circle cy="16" cx="16" fill="#0c0e0d" r="15.937"/><path d="M26.403 18.934c-.066-.548-.348-.973-.774-1.307-.493-.385-1.07-.544-1.685-.57a3.805 3.805 0 0 0-1.466.227c-.135.049-.267.106-.403.161-.018-.033-.037-.064-.053-.097-.14-.285-.308-.558-.344-.884-.027-.232-.06-.465-.004-.694.053-.22.123-.438.188-.656.033-.112.01-.175-.097-.225a.435.435 0 0 0-.119-.04 1.828 1.828 0 0 0-.777.058c-.09.027-.156.077-.176.177-.011.057-.035.112-.05.168-.067.236-.114.475-.222.699-.27.561-.577 1.101-.893 1.638-.034.058-.07.115-.113.185-.11-.231-.229-.439-.265-.683-.04-.275-.072-.55-.003-.824.05-.204.118-.404.179-.605.03-.096.016-.146-.071-.196a.418.418 0 0 0-.143-.055 1.747 1.747 0 0 0-.804.066c-.082.026-.125.08-.15.163-.073.249-.136.503-.239.74a258.33 258.33 0 0 1-1.275 2.858c-.09.199-.194.39-.295.583-.026.05-.063.092-.094.139-.026-.03-.036-.051-.036-.072 0-.122-.014-.248.01-.366.07-.357.151-.713.237-1.068.07-.292.153-.582.232-.873.026-.097.027-.188-.044-.27a.403.403 0 0 0-.508-.061c-.015.011-.034.019-.064.036.005-.046.008-.075.013-.104.03-.222.036-.443-.024-.663-.077-.273-.271-.43-.554-.422a1.213 1.213 0 0 0-.393.075c-.514.201-.91.558-1.246.988a.385.385 0 0 1-.113.098c-.435.24-.872.479-1.308.718l-.485.266c-.13-.124-.249-.253-.383-.363-.41-.334-.827-.66-1.24-.99-.365-.294-.72-.6-.992-.987a1.759 1.759 0 0 1-.344-.962 2.26 2.26 0 0 1 .345-1.257c.297-.495.7-.892 1.145-1.252.47-.381.977-.704 1.504-.999.737-.412 1.495-.777 2.308-1.019.834-.247 1.679-.388 2.55-.29.343.039.676.118.982.286.234.128.426.296.516.558.087.259.085.52.024.783-.124.53-.415.97-.782 1.36-.6.643-1.332 1.08-2.158 1.368a5.92 5.92 0 0 1-1.468.313 2.76 2.76 0 0 1-1.2-.145 1.562 1.562 0 0 1-.662-.449c-.032-.038-.073-.078-.133-.043-.06.034-.07.09-.05.147.034.094.064.192.115.276.13.211.317.365.524.496.398.253.842.338 1.302.357.7.03 1.381-.074 2.053-.261.96-.268 1.794-.74 2.463-1.486.558-.62.955-1.322 1.04-2.168.042-.414-.002-.818-.195-1.195-.21-.408-.543-.69-.942-.898-.58-.305-1.207-.424-1.853-.46h-.648a7.725 7.725 0 0 0-2.277.471c-.557.203-1.103.431-1.634.696-1.155.577-2.231 1.268-3.115 2.225-.44.477-.813 1-1.027 1.62-.062.18-.1.373-.146.56-.003.017.014.032-.025.047v.265c.039.068.043.135.06.203.114.441.348.82.638 1.165.413.492.913.888 1.431 1.26.45.324.906.64 1.357.96.077.055.149.118.233.186-.072.039-.133.073-.195.105a10.43 10.43 0 0 0-1.696 1.05c-.319.248-.627.51-.844.854-.349.552-.473 1.14-.213 1.768.077.183.193.342.357.459a.52.52 0 0 0 .174.09c.159.037.321.062.482.091h.456a2.835 2.835 0 0 0 1.378-.504c.648-.447 1.085-1.047 1.273-1.817a3.21 3.21 0 0 0-.018-1.677c-.015-.052-.034-.102-.054-.152s-.043-.099-.07-.161l1.034-.595.016.013c-.019.061-.039.123-.056.185-.123.449-.205.905-.175 1.37.031.497.17.961.46 1.376.234.336.794.348 1.044.012.088-.12.174-.244.239-.378.168-.348.324-.702.485-1.054l.028-.065c-.011.167-.025.313-.031.46-.01.228.004.456.082.674.067.186.18.325.394.349.145.017.262-.05.369-.135.168-.132.304-.295.405-.48.285-.526.579-1.047.838-1.586.28-.582.525-1.18.786-1.773l.043-.105c.061.242.105.478.183.703.092.26.205.513.33.76.058.116.051.192-.03.29-.34.409-.673.822-1.006 1.236a2.732 2.732 0 0 0-.209.284.55.55 0 0 0-.072.205.261.261 0 0 0 .208.297c.132.028.272.039.407.029a2.389 2.389 0 0 0 1.262-.475c.485-.36.64-.848.523-1.428-.032-.158-.088-.311-.142-.463-.025-.068-.026-.117.018-.18.387-.553.718-1.14 1.026-1.74a.369.369 0 0 1 .045-.072c.1.519.25 1.018.519 1.472-.137.132-.273.252-.396.384-.27.29-.505.607-.627.992-.053.166-.094.334-.07.512.037.276.262.454.533.392.579-.134 1.08-.407 1.445-.89.246-.326.268-.69.165-1.07-.028-.104-.062-.205-.098-.324.144-.045.283-.098.427-.13.749-.172 1.489-.142 2.21.128.421.158.761.423.963.838.246.508.11.99-.369 1.311-.044.03-.095.054-.133.091a.13.13 0 0 0-.03.1c.003.02.052.042.08.042.157-.001.285-.083.407-.168.308-.213.51-.499.558-.875.002-.01-.014-.02.025-.031v-.25c-.039-.01-.023-.02-.024-.031h-.004zM11.755 19.95c-.05.67-.353 1.214-.85 1.654-.28.248-.6.424-.973.486a.718.718 0 0 1-.406-.028c-.187-.08-.229-.246-.232-.424-.006-.282.093-.537.228-.78.177-.315.436-.557.713-.782.436-.354.91-.655 1.393-.938.008-.005.018-.008.037-.015.075.276.11.55.09.828zm3.783-2.914c-.035.214-.08.428-.142.636a18.807 18.807 0 0 1-.794 2.1c-.055.128-.135.244-.206.364a.204.204 0 0 1-.043.05c-.086.086-.17.082-.213-.03a2.363 2.363 0 0 1-.11-.41c-.018-.092-.013-.19-.019-.284.006-.676.212-1.29.562-1.862.144-.235.301-.46.54-.61a.974.974 0 0 1 .24-.106c.128-.036.207.024.186.152zm2.58 3.288c.31-.36.619-.72.928-1.083.039.402-.644 1.205-.927 1.083zm2.964-.728c-.066.037-.138.065-.205.1-.061.031-.082 0-.084-.054a.367.367 0 0 1 .014-.108c.125-.442.356-.819.7-1.125.004-.005.012-.007.023-.013a.993.993 0 0 1-.45 1.2h.002z" fill="#296F21" stroke="null"/></svg><svg viewBox="0 0 64 64" id="telegram" xmlns="http://www.w3.org/2000/svg"><path vector-effect="non-scaling-stroke" d="M48.47 16.983a1.916 1.916 0 0 0-2.014-.355L16.028 29.041c-.817.334-1.325 1.186-1.247 2.094.077.908.722 1.654 1.582 1.833l8.26 1.715V45.27c-.009.834.476 1.587 1.22 1.898.245.106.506.161.77.162A1.916 1.916 0 0 0 28 46.722l4.714-4.896 6.957 6.357c.358.33.82.513 1.3.514.209 0 .416-.034.614-.101a2.01 2.01 0 0 0 1.321-1.496L49.107 19a2.097 2.097 0 0 0-.637-2.017zm-32.375 14.03a.664.664 0 0 1 .415-.697l27.892-11.379-19.273 14.455-8.507-1.767a.653.653 0 0 1-.527-.611zm10.972 14.74a.642.642 0 0 1-.719.149.686.686 0 0 1-.407-.633v-9.632l5.781 5.282zm20.755-27.06-6.201 28.1a.676.676 0 0 1-.44.5.641.641 0 0 1-.639-.138l-14.204-12.98 21.377-16.033c.114.158.153.36.107.551z" fill="#fff"/><path vector-effect="non-scaling-stroke" d="M31.966.606c17.31 0 31.36 14.05 31.36 31.36s-14.05 31.36-31.36 31.36S.606 49.275.606 31.965 14.656.606 31.966.606z" stroke="#fff" fill="none"/></svg><svg viewBox="0 0 48 48" id="vk" xmlns="http://www.w3.org/2000/svg"><path fill="none" d="M-1-1h50v50H-1z"/><g stroke="#fff" fill="none"><ellipse ry="23.084" rx="23.028" cy="23.986" cx="24" stroke-width="1.5"/><path stroke-width="1.529" d="M26.714 32.554v-5.077c3.41.52 4.488 3.204 6.66 5.077h5.535a22.448 22.448 0 0 0-6.04-8.005c1.988-2.737 4.098-5.314 5.13-9.221h-5.03c-1.973 2.99-3.013 6.491-6.255 8.8v-8.8h-7.301l1.743 2.156v7.684c-2.83-.329-4.74-5.505-6.812-9.84H9.09c1.911 5.857 5.933 18.709 17.623 17.226z" stroke-linecap="round" stroke-linejoin="round"/></g></svg></svg>