<svg width="24" height="24" xmlns="http://www.w3.org/2000/svg">

 <g>
  <title>background</title>
  <rect fill="none" id="canvas_background" height="402" width="582" y="-1" x="-1"/>
 </g>
 <g>
  <title>Layer 1</title>
  <ellipse ry="11.937133" rx="11.99963" id="svg_2" cy="12" cx="12" stroke-width="1.5" fill="#0c0e0d"/>
  <g stroke-width="0" id="SVGRepo_bgCarrier"/>
  <g stroke-linejoin="round" stroke-linecap="round" id="SVGRepo_tracerCarrier"/>
  <g stroke="null" id="SVGRepo_iconCarrier">
   <path stroke="null" fill="#296F21" id="svg_1" d="m7.847109,6.996041c-0.230124,0 -0.462303,0.053422 -0.693797,0.152046c-0.232864,0.09931 -0.462988,0.236973 -0.689688,0.414361a4.885347,4.885347 0 0 0 -0.664347,0.628048c-0.214372,0.242452 -0.417785,0.510246 -0.607501,0.797216c-0.189031,0.287655 -0.365048,0.593803 -0.534217,0.90406l-0.000685,0l0,0.000685c-0.16369,0.323955 -0.306832,0.657498 -0.431483,0.99652c-0.123281,0.339707 -0.221906,0.6801 -0.299983,1.025286c-0.075338,0.342447 -0.121911,0.67599 -0.136979,1.003369a0.35272,0.35272 0 0 0 -0.006849,0.062325l0,0.065065c0,0.178757 0.026026,0.362994 0.051367,0.531478l0,0.00137l0.000685,0.00137c0.046573,0.179442 0.119856,0.345186 0.212317,0.491069a1.164319,1.164319 0 0 0 0.367788,0.354775c0.148622,0.094515 0.32464,0.141773 0.531478,0.141773c0.180127,0 0.367103,-0.041094 0.559558,-0.126705c0.191085,-0.085612 0.381486,-0.197249 0.571201,-0.328064c0.183552,-0.1315 0.367103,-0.282176 0.543806,-0.45203c0.141773,-0.1315 0.271218,-0.268478 0.399293,-0.404087l-0.134239,0.416415c-0.058216,0.200674 -0.123281,0.394499 -0.176018,0.584214c-0.058216,0.187661 -0.104104,0.356145 -0.143143,0.505452c-0.039039,0.147937 -0.06575,0.247932 -0.06575,0.312312l0,0.147252c0,0.165059 0.017122,0.281491 0.071229,0.354775a0.272588,0.272588 0 0 0 0.22807,0.104104a0.297929,0.297929 0 0 0 0.181497,-0.065065c0.055476,-0.041094 0.102734,-0.09383 0.149992,-0.153416l0,-0.00137l0.00137,-0.000685c0.039039,-0.059586 0.078763,-0.123281 0.112323,-0.1904c0.034245,-0.069174 0.053422,-0.13013 0.073284,-0.184236l0,-0.000685l0.045888,-0.164375l0.09794,-0.339022l0.13013,-0.4534c0.052052,-0.169169 0.097255,-0.339022 0.155471,-0.511616l0.154101,-0.51367c0.049312,-0.167114 0.095885,-0.318476 0.139033,-0.452715c0.043148,-0.136979 0.079448,-0.247932 0.109583,-0.337653c0.013698,-0.044518 0.027396,-0.079448 0.036984,-0.105474l0.009589,-0.021917l0.027396,0.012328l0.012328,-0.032875c0.052052,-0.149307 0.103419,-0.29245 0.155471,-0.428744c0.052052,-0.136979 0.104104,-0.273958 0.143828,-0.408882a2.57657,2.57657 0 0 0 0.150677,-0.883513a0.436277,0.436277 0 0 0 -0.034245,-0.174648a0.301353,0.301353 0 0 0 -0.084927,-0.123281a0.341762,0.341762 0 0 0 -0.119172,-0.068489a0.426004,0.426004 0 0 0 -0.13013,-0.020547a0.448605,0.448605 0 0 0 -0.25889,0.086982c-0.088351,0.058901 -0.154101,0.156841 -0.203413,0.289025l0,0.000685l-0.376692,1.208153a2.677935,2.677935 0 0 1 -0.217111,0.351351l0,0.000685a6.442796,6.442796 0 0 1 -1.171168,1.254725a2.417675,2.417675 0 0 1 -0.410936,0.276697a0.728042,0.728042 0 0 1 -0.342447,0.099994a0.328749,0.328749 0 0 1 -0.213687,-0.070544a0.436277,0.436277 0 0 1 -0.139718,-0.188346a1.083502,1.083502 0 0 1 -0.069859,-0.265054a2.179332,2.179332 0 0 1 -0.019177,-0.289025c0,-0.282861 0.045203,-0.598597 0.135609,-0.954742c0.090406,-0.356145 0.213687,-0.71229 0.369158,-1.081447c0.155471,-0.369843 0.336968,-0.725987 0.538327,-1.075968c0.200674,-0.349981 0.414361,-0.660923 0.634212,-0.932825c0.219166,-0.271218 0.438332,-0.483535 0.664347,-0.650649c0.22396,-0.167114 0.424634,-0.247932 0.617774,-0.247932a0.602707,0.602707 0 0 1 0.340392,0.09931c0.104104,0.06712 0.198619,0.180127 0.287655,0.339707l0,-0.000685c0.091776,0.177387 0.184236,0.315051 0.263684,0.415046c0.082187,0.102734 0.177387,0.155471 0.279437,0.155471a0.349296,0.349296 0 0 0 0.284916,-0.142458c0.078763,-0.094515 0.116432,-0.22396 0.116432,-0.380801c0,-0.06575 -0.006849,-0.136979 -0.020547,-0.210262a0.595858,0.595858 0 0 0 -0.095885,-0.228755c-0.215057,-0.3219 -0.445866,-0.552709 -0.691743,-0.701331l-0.00137,0a1.517725,1.517725 0 0 0 -0.770506,-0.217111l0.000685,0zm7.506436,0.585584a0.549285,0.549285 0 0 0 -0.280806,0.082187l-0.000685,0l-0.000685,0.000685a0.58216,0.58216 0 0 0 -0.217796,0.294504l-1.293764,3.258725l-0.285601,0.715714c-0.104789,0.26026 -0.202044,0.520519 -0.306148,0.786258a3.282011,3.282011 0 0 0 -0.120541,0.377376a3.421044,3.421044 0 0 1 -0.176018,0.147252c-0.141773,0.109583 -0.276012,0.192455 -0.403402,0.249986l-0.00137,0a0.715714,0.715714 0 0 1 -0.317106,0.088351c-0.056161,0 -0.09383,-0.013698 -0.117802,-0.036299c-0.023971,-0.022601 -0.038354,-0.057531 -0.038354,-0.113692c0,-0.126705 0.019177,-0.267109 0.057531,-0.42121c0.039039,-0.150677 0.090406,-0.308887 0.148622,-0.467782a5.979123,5.979123 0 0 1 0.187661,-0.472577l0.189031,-0.441072c0.058901,-0.136979 0.104789,-0.261629 0.143828,-0.365733a0.787628,0.787628 0 0 0 0.060956,-0.258205a0.486275,0.486275 0 0 0 -0.09794,-0.299299a0.32464,0.32464 0 0 0 -0.267109,-0.13013a0.319161,0.319161 0 0 0 -0.25889,0.122596a1.036929,1.036929 0 0 0 -0.173963,0.287655a2.682729,2.682729 0 0 0 -0.137664,0.367788c-0.038354,0.13013 -0.089721,0.252041 -0.141773,0.366418c-0.077393,0.171223 -0.168484,0.358884 -0.284916,0.565722a4.547695,4.547695 0 0 1 -0.386965,0.581475c-0.141773,0.178072 -0.295874,0.328064 -0.462303,0.447921a0.862966,0.862966 0 0 1 -0.51367,0.176018c-0.056846,0 -0.094515,-0.020547 -0.114377,-0.060271a0.32327,0.32327 0 0 1 -0.035614,-0.154101c0.006849,-0.139718 0.031505,-0.28697 0.076708,-0.440387c0.045203,-0.152046 0.09657,-0.303408 0.154786,-0.45203c0.058216,-0.143828 0.123281,-0.290395 0.193825,-0.428059c0.071914,-0.137664 0.136979,-0.267793 0.201359,-0.383541l0,-0.000685l0.169854,-0.3219a1.54786,1.54786 0 0 0 0.092461,-0.226015l0.000685,-0.00137l0,-0.000685c0.006849,-0.027396 0.014383,-0.06164 0.014383,-0.09931a0.28697,0.28697 0 0 0 -0.036984,-0.146567l0,-0.000685l-0.000685,-0.000685a0.360254,0.360254 0 0 0 -0.229439,-0.163005a0.445181,0.445181 0 0 0 -0.402718,0.070544c-0.090406,0.062325 -0.15821,0.158895 -0.218481,0.291765a15.810773,15.810773 0 0 0 -0.541066,1.244452c-0.13013,0.345871 -0.221221,0.625993 -0.286286,0.841734a3.195714,3.195714 0 0 0 -0.111638,0.479426l0,0.000685l-0.013698,0.15821l0,0.00137c0,0.146567 0.019862,0.273958 0.06164,0.376692l0,0.00137c0.046573,0.100679 0.101364,0.182182 0.170539,0.244507a0.61161,0.61161 0 0 0 0.246562,0.130815c0.090406,0.027396 0.184921,0.040409 0.280806,0.040409c0.213002,0 0.409566,-0.039724 0.589694,-0.106159s0.343132,-0.158895 0.489014,-0.271218a2.328639,2.328639 0 0 0 0.385595,-0.375322c0.082187,-0.095885 0.143828,-0.195195 0.205468,-0.29245c-0.027396,0.150677 -0.053422,0.299299 -0.053422,0.420525c0,0.226015 0.043148,0.390389 0.138349,0.491069a0.476001,0.476001 0 0 0 0.358199,0.146567c0.142458,0 0.300668,-0.039039 0.475316,-0.116432c0.173278,-0.077393 0.349296,-0.179442 0.527368,-0.305463c0.044518,-0.03082 0.086982,-0.063695 0.13013,-0.09657l0.003424,0.024656a0.684894,0.684894 0 0 0 0.102734,0.239713l0.000685,0l0.000685,0.00137c0.054792,0.067804 0.116432,0.123281 0.199304,0.164375a0.679415,0.679415 0 0 0 0.308202,0.062325a1.369788,1.369788 0 0 0 0.539011,-0.119856l0.00137,0c0.183552,-0.085612 0.367788,-0.191085 0.551339,-0.328749a6.06131,6.06131 0 0 0 0.556134,-0.477371l0.006849,-0.006164c-0.031505,0.072599 -0.06164,0.145197 -0.094515,0.218481c-0.149992,0.331489 -0.302723,0.665717 -0.461618,1.007479c-0.15958,0.342447 -0.319161,0.680784 -0.468467,1.019122l-0.000685,0.002055l-0.000685,0.00137a2.691633,2.691633 0 0 1 -0.071229,0.1904c-0.024656,0.06301 -0.058216,0.12876 -0.078763,0.204098l0,0.000685c-0.025341,0.068489 -0.051367,0.135609 -0.065065,0.209577c-0.020547,0.075338 -0.027396,0.148622 -0.027396,0.215742c0,0.142458 0.040409,0.251356 0.117802,0.306148a0.458879,0.458879 0 0 0 0.272588,0.078763c0.083557,0 0.160265,-0.020547 0.229439,-0.054792l0,-0.000685l0.000685,0a0.650649,0.650649 0 0 0 0.180127,-0.150677c0.052052,-0.06164 0.095885,-0.1315 0.135609,-0.210947a2.677935,2.677935 0 0 0 0.105474,-0.249986l0.00137,-0.00274l0,-0.00274c0.005479,-0.025341 0.025341,-0.082872 0.057531,-0.167114l0.110953,-0.298614l0.13013,-0.350666l0.136294,-0.357515l0.116432,-0.297929c0.032875,-0.084927 0.052737,-0.143828 0.065065,-0.174648l0,-0.000685c0.013013,-0.026026 0.032875,-0.065065 0.058216,-0.129445l0.091091,-0.214372l0.110268,-0.253411l0.117802,-0.26026l0.097255,-0.234234l0.070544,-0.154786l0.000685,-0.000685c0.058216,-0.116432 0.12876,-0.245192 0.206838,-0.38765l0,-0.000685c0.084242,-0.141773 0.174648,-0.277382 0.271218,-0.419155l0,-0.000685c0.104104,-0.136979 0.206838,-0.271903 0.317106,-0.400663c0.110268,-0.128075 0.226015,-0.237658 0.342447,-0.341077c0.118487,-0.095885 0.236973,-0.179442 0.35683,-0.236288a0.780779,0.780779 0 0 1 0.341762,-0.087666c0.058901,0 0.09794,0.012328 0.121911,0.026711a0.092461,0.092461 0 0 1 0.028766,0.070544c0,0.054792 -0.02945,0.141773 -0.098625,0.241768l0,0.000685c-0.071229,0.109583 -0.154786,0.226015 -0.258205,0.35546c-0.110953,0.13013 -0.221221,0.266424 -0.344502,0.408882c-0.123281,0.143828 -0.241083,0.28697 -0.352035,0.430113a4.232644,4.232644 0 0 0 -0.282176,0.412991l0,0.000685a1.039669,1.039669 0 0 0 -0.140403,0.362994l0,0.004794a0.132185,0.132185 0 0 1 -0.00274,0.015068c-0.002055,0.006849 -0.004109,0.009589 -0.004109,0.023971l0,0.039039c0,0.176018 0.06301,0.318476 0.187661,0.415046c0.125336,0.104104 0.302038,0.150677 0.520519,0.150677c0.239028,0 0.458879,-0.046573 0.664347,-0.139718c0.204098,-0.091776 0.414361,-0.216426 0.630102,-0.380801l0.000685,0c0.215742,-0.161635 0.438332,-0.35409 0.67873,-0.577365c0.233549,-0.22259 0.506137,-0.469152 0.810914,-0.739685a0.580105,0.580105 0 0 0 0.179442,-0.241083c0.040409,-0.094515 0.060956,-0.188346 0.060956,-0.280806a0.434908,0.434908 0 0 0 -0.056161,-0.221906a0.1904,0.1904 0 0 0 -0.169854,-0.101364a0.252726,0.252726 0 0 0 -0.112323,0.02945c-0.036299,0.017807 -0.074653,0.041094 -0.116432,0.069174c-0.071229,0.022601 0.011643,0.043148 0.020547,0.073969c-0.368473,0.329434 -0.687633,0.607501 -0.940359,0.825982c-0.26026,0.227385 -0.478741,0.402718 -0.64791,0.539696a4.036079,4.036079 0 0 1 -0.393129,0.280806c-0.090406,0.054107 -0.15958,0.080133 -0.197934,0.080133c-0.053422,0 -0.090406,-0.013698 -0.106843,-0.02945a0.097255,0.097255 0 0 1 -0.02945,-0.073969a0.150677,0.150677 0 0 1 0.023971,-0.051367a1.061585,1.061585 0 0 1 0.080133,-0.104104l0.272588,-0.318476c0.110953,-0.123966 0.221906,-0.260945 0.345186,-0.410936c0.123281,-0.150677 0.239713,-0.306148 0.343817,-0.467098c0.109583,-0.157526 0.195195,-0.319845 0.267109,-0.479426c0.069174,-0.15958 0.106843,-0.311627 0.106843,-0.456139a0.573256,0.573256 0 0 0 -0.072599,-0.291765a0.630102,0.630102 0 0 0 -0.189716,-0.205468c-0.075338,-0.054792 -0.163005,-0.095885 -0.256835,-0.123966l-0.000685,0a1.06638,1.06638 0 0 0 -0.714344,0.049997a2.098515,2.098515 0 0 0 -0.409566,0.227385a3.888142,3.888142 0 0 0 -0.386965,0.308202a6.7736,6.7736 0 0 0 -0.26026,0.25889l0.024656,-0.120541c0.010273,-0.049997 0.017122,-0.09657 0.023286,-0.141773l0,-0.000685c0.006849,-0.046573 0.008904,-0.079448 0.008904,-0.102049a0.362309,0.362309 0 0 0 -0.086297,-0.255465l0,-0.000685l-0.00137,0c-0.059586,-0.06164 -0.152046,-0.088351 -0.273958,-0.088351c-0.083557,0 -0.164375,0.047943 -0.232864,0.13013a1.493068,1.493068 0 0 0 -0.180127,0.286286a2.893676,2.893676 0 0 0 -0.138349,0.328749l-0.091091,0.25889l0,0.000685c-0.031505,0.108898 -0.066435,0.219851 -0.102734,0.332173a0.226015,0.226015 0 0 0 -0.028081,0.009589a0.226015,0.226015 0 0 0 -0.093146,0.060956l0.002055,-0.002055c-0.080817,0.078078 -0.171908,0.169169 -0.273273,0.266424c-0.100679,0.097255 -0.207523,0.19451 -0.317791,0.291765c-0.110953,0.091091 -0.223275,0.188346 -0.335598,0.278752c-0.110953,0.089036 -0.219166,0.167799 -0.322585,0.236288c-0.102734,0.069174 -0.198619,0.123281 -0.28697,0.165059a0.531478,0.531478 0 0 1 -0.211632,0.060271c-0.041094,0 -0.058216,-0.009589 -0.068489,-0.028766l-0.000685,0a0.213002,0.213002 0 0 1 -0.021917,-0.106159c0,-0.077393 0.013698,-0.166429 0.043833,-0.267109c0.028766,-0.099994 0.058901,-0.187661 0.089036,-0.263684l0.019177,-0.020547l0.25615,-0.652019c0.097255,-0.249986 0.201359,-0.510931 0.318476,-0.788998l0.351351,-0.858857c0.116432,-0.29245 0.234234,-0.575311 0.344502,-0.845159l0.325325,-0.754753c0.097255,-0.230124 0.182182,-0.423949 0.253411,-0.58079l-0.000685,0.00137c0.040409,-0.080133 0.066435,-0.155471 0.092461,-0.219166l0,-0.00137a0.639691,0.639691 0 0 0 0.037669,-0.203413c0,-0.134239 -0.041779,-0.239713 -0.123281,-0.303408a0.410936,0.410936 0 0 0 -0.262999,-0.091091z"/>
  </g>
 </g>
</svg>