<svg width="512" height="512" xmlns="http://www.w3.org/2000/svg">

 <g>
  <title>background</title>
  <rect fill="none" id="canvas_background" height="402" width="582" y="-1" x="-1"/>
 </g>
 <g>
  <title>Layer 1</title>
  <g stroke-width="0" id="SVGRepo_bgCarrier"/>
  <g stroke-linejoin="round" stroke-linecap="round" id="SVGRepo_tracerCarrier"/>
  <g id="SVGRepo_iconCarrier">
   <ellipse ry="255.5" rx="255.5" id="svg_2" cy="256" cx="256" stroke-width="1.5" fill="#0c0e0d"/>
   <g stroke="null" id="5151e0c8492e5103c096af88a51e7e7e">
    <path stroke="null" fill="#296F21" id="svg_1" d="m234.766959,256.854074c0,36.348944 2.597035,66.891627 -15.337896,84.966968c-10.087662,10.168538 -26.004611,16.159579 -45.588525,16.159579c-32.12146,0 -49.956419,-15.648484 -61.33979,-37.302051c10.958769,-6.997504 22.157922,-13.761366 33.572183,-20.305624c4.65714,13.023367 20.382569,27.665388 38.128789,18.652149c11.248015,-5.717521 9.949498,-23.04981 9.949498,-41.86315c0,-39.061677 0,-84.12282 0,-119.364766c-0.035383,-0.586355 -0.070205,-1.172148 0.411122,-1.243477c13.404161,0 26.806075,0 40.205181,0c-0.000562,31.39301 -0.000562,66.909599 -0.000562,100.300371zm101.956094,-23.622124c-10.248291,-4.388675 -22.986906,-9.580498 -26.109638,-19.068888c-3.500718,-10.63414 2.468981,-19.395202 9.11602,-22.3764c14.615624,-6.564478 32.034967,4.243771 35.643521,15.333403c10.998646,-6.547067 21.961908,-13.133449 31.915899,-20.722363c-11.696768,-19.423846 -28.842591,-33.328992 -60.097437,-32.328706c-17.208727,0.549848 -30.136054,5.982616 -39.787319,14.090488c-9.419307,7.910735 -16.692578,19.013847 -17.824849,34.815659c-3.383896,47.297042 32.006885,59.37011 62.171021,72.528833c9.508608,4.14773 20.079282,8.335899 24.453916,16.578003c9.020541,17.007659 -6.958189,28.228154 -20.723486,29.428384c-22.092771,1.924749 -36.988654,-11.000892 -45.591333,-24.453916c-10.745907,6.661081 -22.43088,12.38141 -32.742637,19.479448c14.342666,25.222243 37.859762,41.550315 74.60354,41.445288c37.484023,-0.105589 65.273534,-18.178122 67.554926,-52.219838c3.101952,-46.270359 -31.563187,-59.25048 -62.582143,-72.529394z"/>
   </g>
  </g>
 </g>
</svg>