<svg width="32" height="32" xmlns="http://www.w3.org/2000/svg">

 <g>
  <title>background</title>
  <rect fill="none" id="canvas_background" height="402" width="582" y="-1" x="-1"/>
 </g>
 <g>
  <title>Layer 1</title>
  <ellipse ry="15.93744" rx="15.937318" id="svg_2" cy="16" cx="16" stroke-width="1.5" fill="#0c0e0d"/>
  <g stroke-width="0" id="SVGRepo_bgCarrier"/>
  <g stroke-linejoin="round" stroke-linecap="round" id="SVGRepo_tracerCarrier"/>
  <g stroke="null" id="SVGRepo_iconCarrier">
   <path stroke="null" id="svg_1" d="m26.402855,18.933713c-0.065554,-0.547891 -0.347619,-0.973093 -0.773423,-1.306278c-0.493162,-0.385508 -1.070523,-0.544283 -1.685773,-0.569542c-0.501582,-0.020448 -0.992339,0.054128 -1.465654,0.226133c-0.134717,0.048715 -0.267029,0.106451 -0.40295,0.16118c-0.018043,-0.033078 -0.037288,-0.064352 -0.052925,-0.09743c-0.139529,-0.285072 -0.307926,-0.557514 -0.344612,-0.884083c-0.026462,-0.232147 -0.058939,-0.464294 -0.003609,-0.693434c0.052925,-0.22072 0.122689,-0.437832 0.187642,-0.656146c0.033679,-0.112465 0.010224,-0.175012 -0.096828,-0.225531c-0.037288,-0.017441 -0.077583,-0.033078 -0.118479,-0.039092c-0.263421,-0.037889 -0.522632,-0.016238 -0.777633,0.057736c-0.090213,0.026462 -0.155767,0.076981 -0.175614,0.176817c-0.011427,0.057135 -0.034882,0.111864 -0.050519,0.168397c-0.066757,0.235154 -0.113668,0.474518 -0.221322,0.698245c-0.270036,0.561724 -0.577361,1.101796 -0.893105,1.638261c-0.034281,0.057736 -0.069764,0.114871 -0.113066,0.185237c-0.110661,-0.231546 -0.228539,-0.439035 -0.264624,-0.68321c-0.040295,-0.275449 -0.07217,-0.550297 -0.003609,-0.823942c0.05112,-0.20388 0.117878,-0.404152 0.179222,-0.605026c0.029469,-0.095625 0.015637,-0.145543 -0.070967,-0.196062c-0.043903,-0.02526 -0.09322,-0.048113 -0.142536,-0.05533c-0.273043,-0.040295 -0.541877,-0.019245 -0.804696,0.066156c-0.081793,0.026462 -0.124493,0.079387 -0.149753,0.163586c-0.073373,0.248385 -0.13592,0.502785 -0.238763,0.739142c-0.417384,0.956254 -0.846194,1.907696 -1.275005,2.858536c-0.089611,0.198468 -0.194258,0.39032 -0.295296,0.583375c-0.025861,0.049316 -0.062547,0.092017 -0.094423,0.138326c-0.025861,-0.030071 -0.035484,-0.05112 -0.035484,-0.071569c0.000601,-0.122088 -0.013833,-0.248385 0.009623,-0.366263c0.070366,-0.357242 0.151557,-0.713281 0.23756,-1.067516c0.070366,-0.292289 0.15276,-0.582172 0.231546,-0.873258c0.026462,-0.09743 0.027064,-0.188244 -0.043302,-0.270036c-0.117276,-0.137123 -0.362655,-0.167194 -0.508198,-0.061345c-0.015637,0.011427 -0.034281,0.019245 -0.064352,0.036686c0.005413,-0.046309 0.00842,-0.075177 0.01263,-0.104045c0.030672,-0.222524 0.036686,-0.443846 -0.024057,-0.663363c-0.07638,-0.273043 -0.270638,-0.430013 -0.553905,-0.421594c-0.132312,0.00421 -0.270638,0.026462 -0.392725,0.074576c-0.514212,0.201475 -0.909343,0.558115 -1.245535,0.987527c-0.030672,0.039092 -0.070967,0.074576 -0.113668,0.098031c-0.434825,0.241168 -0.871454,0.47933 -1.307481,0.718694c-0.162984,0.08901 -0.325968,0.178621 -0.485344,0.265826c-0.129906,-0.124493 -0.248385,-0.253197 -0.383103,-0.362655c-0.410167,-0.334388 -0.826949,-0.660356 -1.239521,-0.991136c-0.365662,-0.29289 -0.720498,-0.59841 -0.991737,-0.986324c-0.202076,-0.28868 -0.331982,-0.604424 -0.344011,-0.961666c-0.015637,-0.454671 0.113066,-0.870251 0.344612,-1.257564c0.296499,-0.494966 0.70005,-0.891902 1.144497,-1.252151c0.469707,-0.380697 0.977905,-0.703658 1.504746,-0.998353c0.736736,-0.412572 1.495123,-0.777633 2.307638,-1.018801c0.833564,-0.247183 1.678556,-0.388516 2.550611,-0.289883c0.342808,0.038491 0.675392,0.117276 0.981513,0.285072c0.233951,0.128102 0.425803,0.295897 0.515415,0.558717c0.087807,0.258609 0.085401,0.520226 0.024057,0.782444c-0.123892,0.531051 -0.414978,0.969485 -0.781241,1.361007c-0.600214,0.641712 -1.332741,1.078341 -2.157885,1.367022c-0.475721,0.166593 -0.965275,0.271239 -1.46806,0.313338c-0.410167,0.034281 -0.811913,-0.001804 -1.200429,-0.144942c-0.257407,-0.094423 -0.481134,-0.239364 -0.661559,-0.449259c-0.032477,-0.037889 -0.073373,-0.078184 -0.133515,-0.043302c-0.058939,0.034281 -0.069163,0.090814 -0.049316,0.147347c0.033078,0.094423 0.063149,0.191852 0.114871,0.276051c0.128703,0.211097 0.316947,0.364459 0.523834,0.496169c0.397537,0.252595 0.841383,0.337395 1.302068,0.357242c0.698847,0.030071 1.380854,-0.073974 2.052637,-0.261617c0.959862,-0.267631 1.794028,-0.740345 2.463405,-1.486102c0.557514,-0.620663 0.955051,-1.321915 1.040452,-2.168109c0.041498,-0.413174 -0.002406,-0.817928 -0.196062,-1.194415c-0.209895,-0.408362 -0.54308,-0.689826 -0.941819,-0.898517c-0.579766,-0.304317 -1.206443,-0.423999 -1.852967,-0.458881c-0.215909,0 -0.431818,0 -0.647726,0c-0.783647,0.037889 -1.540831,0.202678 -2.276966,0.470308c-0.556912,0.202678 -1.103601,0.431216 -1.634051,0.69584c-1.155323,0.577361 -2.231258,1.267788 -3.11474,2.224643c-0.440237,0.476924 -0.813116,1.000157 -1.027221,1.619617c-0.062547,0.181628 -0.101038,0.374082 -0.146144,0.561724c-0.003609,0.015637 0.013833,0.030672 -0.024658,0.046309c0,0.088408 0,0.176215 0,0.264624c0.038491,0.06796 0.042701,0.135319 0.060142,0.203279c0.113668,0.440839 0.347619,0.819732 0.637502,1.164945c0.413174,0.491959 0.912951,0.887692 1.431373,1.260571c0.449259,0.322961 0.905133,0.638705 1.356196,0.959261c0.077583,0.054729 0.149151,0.118479 0.23335,0.185838c-0.07217,0.039092 -0.132913,0.073373 -0.195461,0.105248c-0.595403,0.301911 -1.167952,0.640509 -1.695997,1.050676c-0.31815,0.247183 -0.626075,0.510002 -0.843187,0.85281c-0.349423,0.552101 -0.473315,1.140287 -0.212902,1.768167c0.07638,0.183432 0.192454,0.342206 0.356039,0.458881c0.052925,0.037889 0.112465,0.075779 0.174411,0.090213c0.158774,0.037288 0.321157,0.061946 0.482337,0.091415c0.152159,0 0.303716,0 0.455874,0c0.504589,-0.045106 0.963471,-0.217713 1.377847,-0.503988c0.648328,-0.447454 1.084957,-1.047068 1.2732,-1.817483c0.136522,-0.559318 0.141934,-1.119839 -0.018644,-1.676751c-0.015035,-0.051722 -0.033679,-0.102241 -0.053526,-0.152159s-0.042701,-0.098632 -0.069764,-0.16118c0.344011,-0.197866 0.689224,-0.396334 1.033836,-0.594802c0.005413,0.00421 0.010224,0.009021 0.015637,0.013231c-0.018644,0.061345 -0.038491,0.122689 -0.055932,0.185237c-0.122689,0.448657 -0.204482,0.905133 -0.175012,1.37063c0.031274,0.496169 0.1696,0.960463 0.460084,1.375441c0.234553,0.335591 0.794472,0.347619 1.04406,0.011427c0.088408,-0.119682 0.174411,-0.244175 0.238763,-0.37769c0.168397,-0.348221 0.324765,-0.702455 0.485344,-1.054285c0.007217,-0.015035 0.013231,-0.030071 0.028267,-0.064352c-0.011427,0.166593 -0.02526,0.312737 -0.031274,0.459483c-0.009623,0.228539 0.003609,0.455874 0.081793,0.673587c0.066757,0.186439 0.180425,0.325367 0.393928,0.349423c0.145543,0.01684 0.262218,-0.049918 0.36927,-0.134717c0.167795,-0.132312 0.303716,-0.295296 0.404754,-0.481134c0.285673,-0.525037 0.579165,-1.046466 0.838376,-1.584735c0.28026,-0.582172 0.525037,-1.181184 0.785451,-1.772978c0.014434,-0.032477 0.027064,-0.065554 0.043302,-0.105248c0.061345,0.24177 0.104647,0.478127 0.183432,0.702455c0.091415,0.259812 0.205083,0.51361 0.328975,0.760191c0.058337,0.116675 0.051722,0.192454 -0.029469,0.289883c-0.339199,0.408964 -0.672385,0.822739 -1.006171,1.236514c-0.073974,0.091415 -0.147347,0.184034 -0.208692,0.283869c-0.037288,0.060743 -0.061946,0.134116 -0.07217,0.205083c-0.019847,0.135319 0.063149,0.265225 0.20809,0.296499c0.13171,0.028267 0.272442,0.039092 0.40716,0.028868c0.465497,-0.034281 0.888293,-0.197866 1.262375,-0.474518c0.484141,-0.359046 0.639908,-0.847998 0.522632,-1.428366c-0.031875,-0.157571 -0.087807,-0.310933 -0.142536,-0.46249c-0.024658,-0.068562 -0.025861,-0.116675 0.018644,-0.180425c0.387313,-0.552703 0.718092,-1.139686 1.025417,-1.739299c0.012028,-0.023455 0.024658,-0.047512 0.045708,-0.072771c0.099835,0.519023 0.249588,1.018801 0.518422,1.47227c-0.137123,0.132312 -0.273043,0.251994 -0.395733,0.384306c-0.270638,0.290485 -0.505191,0.60683 -0.627278,0.991737c-0.052323,0.165991 -0.09322,0.334388 -0.069764,0.512408c0.036686,0.275449 0.262218,0.45407 0.532856,0.391523c0.579165,-0.134116 1.079544,-0.40716 1.445206,-0.890699c0.24598,-0.325367 0.268232,-0.688623 0.16539,-1.06932c-0.028267,-0.103444 -0.061946,-0.205083 -0.098031,-0.324164c0.143137,-0.044505 0.282666,-0.09743 0.426405,-0.130508c0.748765,-0.170803 1.489109,-0.140732 2.210209,0.129305c0.420992,0.157571 0.761394,0.422195 0.962869,0.837774c0.246581,0.508198 0.110059,0.989933 -0.368669,1.31109c-0.044505,0.030071 -0.095625,0.053526 -0.132913,0.090814c-0.022854,0.022854 -0.036085,0.069163 -0.030672,0.100437c0.003007,0.018644 0.052323,0.041498 0.079989,0.041498c0.157571,-0.001203 0.285072,-0.083597 0.407761,-0.168397c0.307324,-0.2123 0.510002,-0.498575 0.558115,-0.874461c0.001203,-0.010826 -0.014434,-0.02105 0.024057,-0.031274c0,-0.083597 0,-0.166593 0,-0.25019c-0.038491,-0.010224 -0.022252,-0.020448 -0.023455,-0.031274l-0.00421,0.001203zm-14.647518,1.016395c-0.049918,0.67058 -0.353633,1.214262 -0.850404,1.653898c-0.279659,0.247784 -0.599613,0.423999 -0.973093,0.485945c-0.135319,0.022252 -0.273645,0.027665 -0.405355,-0.028267c-0.187041,-0.079989 -0.22914,-0.24598 -0.232748,-0.423398c-0.005413,-0.282065 0.09322,-0.537066 0.228539,-0.779437c0.176817,-0.316346 0.436028,-0.557514 0.71268,-0.782444c0.436028,-0.354836 0.909343,-0.655545 1.393484,-0.938812c0.007818,-0.004811 0.017441,-0.007217 0.036686,-0.015035c0.074576,0.276652 0.110661,0.549695 0.089611,0.828152l0.000601,-0.000601zm3.782915,-2.913867c-0.035484,0.214105 -0.079387,0.428209 -0.141934,0.635698c-0.21651,0.718092 -0.493764,1.414533 -0.793871,2.100751c-0.05533,0.126899 -0.13592,0.242973 -0.206286,0.363256c-0.010826,0.018644 -0.027064,0.034882 -0.042701,0.050519c-0.086604,0.086003 -0.1696,0.081191 -0.213503,-0.031274c-0.05112,-0.130508 -0.082394,-0.270036 -0.109458,-0.408362c-0.018043,-0.092618 -0.013833,-0.190048 -0.019245,-0.285072c0.006014,-0.675392 0.211699,-1.29004 0.561724,-1.861387c0.14434,-0.235756 0.30131,-0.460084 0.540674,-0.609837c0.073974,-0.045708 0.156368,-0.082394 0.239966,-0.106451c0.1275,-0.036085 0.206286,0.023455 0.185237,0.151557l-0.000601,0.000601zm2.580682,3.287948c0.309128,-0.36085 0.617656,-0.721099 0.927385,-1.083153c0.038491,0.402348 -0.644719,1.20524 -0.927385,1.083153zm2.962582,-0.728316c-0.065554,0.037288 -0.137123,0.064953 -0.204482,0.099234c-0.061345,0.031875 -0.081793,0 -0.083597,-0.052925c-0.001203,-0.036085 0.00421,-0.073373 0.013833,-0.108255c0.125095,-0.442042 0.355438,-0.818529 0.698847,-1.125252c0.004811,-0.004811 0.01263,-0.006616 0.024057,-0.01263c0.162984,0.455874 -0.02526,0.957456 -0.449259,1.199828l0.000601,0z" fill="#296F21"/>
  </g>
 </g>
</svg>