<?xml version="1.0" encoding="UTF-8" standalone="no" ?>
<!DOCTYPE svg PUBLIC "-//W3C//DTD SVG 1.1//EN" "http://www.w3.org/Graphics/SVG/1.1/DTD/svg11.dtd">
<svg xmlns="http://www.w3.org/2000/svg" xmlns:xlink="http://www.w3.org/1999/xlink" version="1.1" width="64" height="64" viewBox="0 0 64 64" xml:space="preserve">
<desc>Created with Fabric.js 5.3.0</desc>
<defs>
</defs>
<g transform="matrix(0.1648683453 0 0 0.1712050668 31.9655378846 32.5908931068)" id="V2nWFTFHEhqlns5pybrFq"  >
<path style="stroke: none; stroke-width: 1; stroke-dasharray: none; stroke-linecap: butt; stroke-dashoffset: 0; stroke-linejoin: miter; stroke-miterlimit: 4; fill: rgb(255,255,255); fill-rule: nonzero; opacity: 1;" vector-effect="non-scaling-stroke"  transform=" translate(-128.5391962173, -125.9303917419)" d="M 228.646 34.7676 C 225.27679555689187 31.856383662811737 220.56969166406915 31.05687818813584 216.42821999999998 32.692400000000006 L 31.87109 105.19729 C 26.91580997857327 107.14389245204836 23.83570682434832 112.12287441538783 24.306176931212235 117.42596022231375 C 24.77664703807615 122.72904602923967 28.685179207654095 127.088022183258 33.905759999999994 128.13186 L 84 138.15139 L 84 199.98439 C 83.94875435411711 204.85315867045995 86.88986904741503 209.25465273703009 91.40771 211.07031999999998 C 92.88648549261566 211.68948092657826 94.47301089926775 212.01040461501466 96.07616999999999 212.01466 C 99.24061910253266 212.00474672800982 102.26923549419496 210.72766966898678 104.48534999999998 208.46876 L 133.08154 179.87257 L 175.2749 217.003 C 177.44913094782245 218.93393741469026 180.25520593325575 220.00182457290038 183.16309 220.00494999999998 C 184.42720171895223 220.00348058964786 185.6832913416791 219.8041272067353 186.88574 219.41412999999997 C 190.92149160270952 218.1343116114788 193.9730781559466 214.80622656852125 194.89893 210.67487999999997 L 232.5127 46.542 C 233.51359249400082 42.203530202781806 232.02413050527815 37.66800346421505 228.646 34.7676 Z M 32.2749 116.71877 C 32.07007540723221 114.93993295763237 33.11365425229385 113.25325382167878 34.7969 112.6426 L 203.97217 46.18044 L 87.07227 130.60769 L 35.47461 120.28811 C 33.71014914412452 119.98288788957997 32.38618027130941 118.50597433913512 32.2749 116.71877 Z M 98.82812 202.81252 C 97.68422396014073 203.9564990227031 95.96384155817135 204.29875690463348 94.46920122168187 203.67969598765595 C 92.9745608851924 203.06063507067842 92.00001408936019 201.60217197224821 92 199.9844 L 92 143.72048 L 127.064 174.57717000000002 Z M 224.71484 44.7549 L 187.10107 208.88772 C 186.78605222541432 210.2616463618354 185.77118789390798 211.3683750735831 184.42963305581466 211.8009724180498 C 183.08807821772135 212.2335697625165 181.61786236082992 211.92817921433996 180.55956999999998 210.99709000000001 L 94.40526999999997 135.18069000000003 L 224.06835999999998 41.53569000000003 C 224.75927134212856 42.45592377311142 224.99691078644318 43.63927248541816 224.71484 44.7549 Z" stroke-linecap="round" />
</g>
<g transform="matrix(3.7154563378 0 0 3.7154563378 31.9655378846 31.9655378846)" id="zOAU1nFIpNkz0nWVG1nvI"  >
<path style="stroke: rgb(255,255,255); stroke-width: 1; stroke-dasharray: none; stroke-linecap: butt; stroke-dashoffset: 0; stroke-linejoin: miter; stroke-miterlimit: 4; fill: none; fill-rule: nonzero; opacity: 1;" vector-effect="non-scaling-stroke"  transform=" translate(0, 0)" d="M 0 -8.44029 C 4.65904 -8.44029 8.44029 -4.659039999999999 8.44029 0 C 8.44029 4.65904 4.659039999999999 8.44029 0 8.44029 C -4.65904 8.44029 -8.44029 4.659039999999999 -8.44029 0 C -8.44029 -4.65904 -4.659039999999999 -8.44029 0 -8.44029 z" stroke-linecap="round" />
</g>
</svg>